<svg xmlns="http://www.w3.org/2000/svg" width="88" height="88" viewBox="0 0 88 88" fill="none">
<path d="M37.9999 46C33.5817 46 29.9999 42.4183 29.9999 38C29.9999 33.5817 33.5817 30 37.9999 30C40.9611 30 43.5465 31.6088 44.9297 34" stroke="#003B57" stroke-width="2" stroke-linecap="round" stroke-linejoin="round"/>
<ellipse cx="6" cy="6" rx="6" ry="6" transform="matrix(4.37114e-08 -1 -1 -4.37114e-08 28 26)" stroke="#003B57" stroke-width="2" stroke-linejoin="round"/>
<ellipse cx="6" cy="6" rx="6" ry="6" transform="matrix(4.37114e-08 -1 -1 -4.37114e-08 70 20)" stroke="#003B57" stroke-width="2" stroke-linejoin="round"/>
<ellipse cx="6" cy="6" rx="6" ry="6" transform="matrix(4.37114e-08 -1 -1 -4.37114e-08 23 72)" stroke="#003B57" stroke-width="2" stroke-linejoin="round"/>
<path d="M62.2126 31.7507C62.3502 32.2856 62.0283 32.8308 61.4934 32.9684C60.9585 33.1061 60.4134 32.7841 60.2757 32.2493L62.2126 31.7507ZM15.0002 38C15.0002 50.7025 25.2977 61 38.0002 61L38.0002 63C24.1931 63 13.0002 51.8071 13.0002 38L15.0002 38ZM60.2757 32.2493C57.7224 22.329 48.716 15 38.0002 15L38.0002 13C49.6506 13 59.4374 20.9683 62.2126 31.7507L60.2757 32.2493ZM38.0002 15C34.2814 15 30.7714 15.8818 27.6653 17.4469L26.7654 15.6609C30.1443 13.9583 33.9618 13 38.0002 13L38.0002 15ZM18.8935 25.1919C16.4348 28.8522 15.0002 33.2571 15.0002 38L13.0002 38C13.0002 32.8476 14.56 28.0564 17.2333 24.0767L18.8935 25.1919Z" fill="#003B57"/>
<path d="M73.4732 31.8298C73.5672 32.374 73.2023 32.8914 72.658 32.9854C72.1138 33.0794 71.5964 32.7145 71.5024 32.1702L73.4732 31.8298ZM38.0001 4C19.2224 4 4.00009 19.2223 4.00009 38L2.00009 38C2.00009 18.1177 18.1178 2 38.0001 2L38.0001 4ZM58.6281 10.9702C52.907 6.59724 45.7583 4 38.0001 4L38.0001 2C46.2124 2 53.7849 4.75099 59.8426 9.38119L58.6281 10.9702ZM71.5024 32.1702C70.7203 27.6428 69.0426 23.4219 66.6578 19.6961L68.3422 18.6179C70.8674 22.563 72.6447 27.0339 73.4732 31.8298L71.5024 32.1702ZM22.6925 68.3676C27.2921 70.6909 32.4918 72 38.0001 72L38.0001 74C32.1714 74 26.6636 72.6141 21.7908 70.1528L22.6925 68.3676ZM4.00009 38C4.00009 47.0247 7.51489 55.2263 13.2522 61.3142L11.7967 62.6858C5.7236 56.2417 2.00009 47.5546 2.00009 38L4.00009 38Z" fill="#003B57"/>
<rect x="39" y="39" width="46" height="46" stroke="#F28A48" stroke-width="2" stroke-linecap="round" stroke-linejoin="round"/>
<path d="M80 52H71C65.4772 52 61 56.4772 61 62V62C61 67.5228 65.4772 72 71 72H80" stroke="#F28A48" stroke-width="2" stroke-linecap="round" stroke-linejoin="round"/>
<path d="M73 79.0001L80.0001 72.0001L73 65" stroke="#F28A48" stroke-width="2" stroke-linecap="round" stroke-linejoin="round"/>
<path d="M50 69.0001L57.0001 62.0001L50 55" stroke="#F28A48" stroke-width="2" stroke-linecap="round" stroke-linejoin="round"/>
<path d="M73 59.0001L80.0001 52.0001L73 45" stroke="#F28A48" stroke-width="2" stroke-linecap="round" stroke-linejoin="round"/>
<path d="M56 62L44 62" stroke="#F28A48" stroke-width="2" stroke-linecap="round" stroke-linejoin="round"/>
</svg>